<svg width="15" height="20" viewBox="0 0 15 20" fill="none" xmlns="http://www.w3.org/2000/svg">
<path d="M6.96418 20C11.6609 20 14.5834 16.5392 14.5834 12.0742C14.5834 10.3908 14.3092 8.87083 12.3984 8.41417C12.8634 7.14083 14.205 3.4575 14.205 2.2775C14.205 1.23833 13.58 0.3675 12.4659 0.3675C10.69 0.3675 9.09835 5.51167 8.60002 6.73833C8.21418 5.625 6.40752 0 4.81502 0C3.57752 0 2.99668 0.894167 2.99668 2.01917C2.99668 3.39833 4.35752 6.9725 4.85085 8.3475C4.60085 8.2575 4.33002 8.17917 4.05418 8.17917C3.12252 8.17917 2.13168 9.31583 2.13168 10.2342C2.13168 10.5817 2.32668 11.07 2.45002 11.3942C0.981684 11.785 0.416684 12.7458 0.416684 14.195C0.412517 17.015 3.13585 20 6.96418 20ZM10.9892 4.21917C11.1492 3.73833 11.8292 1.7075 12.4659 1.7075C12.8084 1.7075 12.9 2.055 12.9 2.3325C12.9 3.07833 11.3642 7.2 11.025 8.11333L9.67168 7.87917L10.9892 4.21917ZM4.24668 1.8875V1.88667C4.24668 1.42167 4.82418 0.101667 6.08918 3.72667L7.46668 7.645C6.84585 7.59417 6.36418 7.5275 6.05835 7.7C5.62418 6.575 4.24668 3.02417 4.24668 1.8875ZM4.15502 9.53083L4.15585 9.53167C5.32168 9.53167 6.82668 13.2267 6.82668 13.7267C6.82668 13.9258 6.63168 14.1717 6.40502 14.1717C5.57252 14.1717 3.34335 11.1675 3.34335 10.355C3.34668 10.0542 3.84835 9.53083 4.15502 9.53083ZM2.81502 12.5892C3.26835 12.5892 4.97585 14.945 4.97585 15.445C4.97585 15.6367 4.66918 15.7692 4.51085 15.7692C3.87002 15.7692 3.61918 15.1633 2.47752 13.7617C1.29502 14.9217 3.29335 17.1558 4.79835 17.1558C5.83668 17.1558 6.51335 16.2108 6.31085 15.515C6.45835 15.515 6.64085 15.5267 6.77668 15.4917C6.82085 16.55 7.13918 17.8117 8.43668 17.9017C8.43668 17.8667 8.51668 17.6242 8.51668 17.6125C8.51668 16.9325 8.09502 16.3392 8.09502 15.6475C8.09502 14.5417 8.95835 13.4717 9.83418 12.8467C10.1525 12.6125 10.5392 12.4675 10.9125 12.335C11.2992 12.1908 11.7092 12.0225 12.0025 11.7333C11.9584 11.2958 11.7759 10.9092 11.33 10.9092C10.2275 10.9092 6.53002 11.0658 6.53002 9.35833C6.53002 9.09667 6.53418 8.84667 7.22335 8.84667C8.50918 8.84667 11.7734 9.15917 12.7284 9.98333C13.4484 10.6125 13.6959 14.405 11.4942 16.8075L11.4917 16.8083C10.3334 18.0583 8.85252 18.7067 7.12502 18.7067C4.76085 18.7067 2.89335 17.4333 1.99418 15.2575C1.31335 13.5625 2.14585 12.5892 2.81502 12.5892ZM7.56585 11.8858C7.95335 12.0075 8.35085 12.0433 8.74918 12.1208C8.45418 12.3317 8.19252 12.59 7.94085 12.8667C7.82918 12.535 7.69335 12.2108 7.56585 11.8858Z" fill="white"/>
</svg>
