<svg width="21" height="20" viewBox="0 0 21 20" fill="none" xmlns="http://www.w3.org/2000/svg">
<path d="M14.1443 3.03455C10.6556 3.03455 7.78855 5.86213 7.78855 9.37937V19.3104C7.78855 19.6897 8.09943 20.0001 8.47939 20.0001H12.0718C12.4518 20.0001 12.7626 19.6897 12.7626 19.3104V9.65524C12.7626 8.89661 13.3844 8.27592 14.1443 8.27592C14.9043 8.27592 15.526 8.89661 15.526 9.65524V19.3104C15.526 19.6897 15.8369 20.0001 16.2169 20.0001H19.8093C20.1892 20.0001 20.5001 19.6897 20.5001 19.3104V9.37937C20.5001 5.89662 17.6677 3.03455 14.1443 3.03455Z" fill="white"/>
<path d="M4.78325 6.27588H1.19085C0.810881 6.27588 0.5 6.58622 0.5 6.96553V19.3104C0.5 19.6897 0.810881 20 1.19085 20H4.78325C5.16321 20 5.47409 19.6897 5.47409 19.3104V6.96553C5.47409 6.58622 5.16321 6.27588 4.78325 6.27588Z" fill="white"/>
<path d="M2.98705 0C1.60535 0 0.5 1.10345 0.5 2.48276C0.5 3.86207 1.60535 4.96552 2.98705 4.96552C4.36874 4.96552 5.47409 3.86207 5.47409 2.48276C5.47409 1.10345 4.36874 0 2.98705 0Z" fill="white"/>
</svg>
