<svg width="21" height="16" viewBox="0 0 21 16" fill="none" xmlns="http://www.w3.org/2000/svg">
<path d="M18.9042 1.88042L20.5 0.337684V0H14.9717L11.0317 9.90989L6.54917 0H0.7525V0.337684L2.61667 2.60547C2.79833 2.77305 2.89333 3.01811 2.86917 3.26484V12.1768C2.92667 12.4977 2.82333 12.8278 2.6 13.0611L0.5 15.6328V15.9663H6.45417V15.6286L4.35417 13.0611C4.12667 12.8269 4.01917 12.5027 4.065 12.1768V4.46821L9.29167 15.9705H9.89917L14.3933 4.46821V13.6312C14.3933 13.8728 14.3933 13.9225 14.2367 14.0808L12.62 15.6615V16H20.4633V15.6623L18.905 14.1204C18.7683 14.016 18.6975 13.8408 18.7267 13.6707V2.33011C18.6975 2.15916 18.7675 1.984 18.9042 1.88042Z" fill="white"/>
</svg>
