<svg width="21" height="20" viewBox="0 0 21 20" fill="none" xmlns="http://www.w3.org/2000/svg">
<path d="M20.2663 0.369643C19.9329 -0.0290272 19.3663 -0.128695 18.9329 0.170308L16.9996 1.49921C16.0996 0.535755 14.8329 0.00419528 13.4663 0.00419528C10.7663 0.00419528 8.53294 2.19688 8.53294 4.92113C8.53294 5.3198 8.56627 5.68524 8.66627 6.05069C6.33294 5.55235 4.93294 3.85801 4.3996 0.801535C4.33294 0.402865 4.03294 0.103863 3.63294 0.00419528C3.26627 -0.0954722 2.86627 0.0706403 2.63294 0.369643C2.56627 0.436088 -2.93373 8.07726 5.03294 14.5557C4.26627 16.1836 1.96627 17.5789 1.06627 18.044C0.632936 18.2434 0.432935 18.7085 0.532936 19.1736C0.632936 19.6387 1.03294 19.9377 1.4996 19.9377H3.23294C13.3663 19.9377 17.9663 14.9211 18.0663 3.69189L20.1663 1.69854C20.5663 1.36632 20.5996 0.768313 20.2663 0.369643Z" fill="white"/>
</svg>
